<svg width="181" height="181" viewBox="0 0 181 181" fill="none" xmlns="http://www.w3.org/2000/svg">
<path d="M90.6013 17.8271C100.667 17.8272 110.11 19.7389 118.95 23.5518C127.829 27.3812 135.523 32.5636 142.052 39.0967C148.581 45.6306 153.766 53.3263 157.605 62.2012C161.427 71.0348 163.336 80.4759 163.321 90.5449C163.306 100.617 161.395 110.062 157.596 118.898C153.782 127.77 148.601 135.463 142.053 141.996C135.504 148.531 127.808 153.717 118.948 157.552C110.13 161.368 100.688 163.277 90.6033 163.268H90.6013C80.5255 163.268 71.0824 161.356 62.2527 157.544C53.3838 153.715 45.689 148.532 39.1501 141.998C32.6121 135.465 27.4295 127.771 23.6052 118.897C19.7972 110.062 17.8855 100.618 17.8806 90.5469C17.8758 80.4769 19.787 71.0346 23.6042 62.2002C27.4389 53.3256 32.6222 45.6305 39.1511 39.0967C45.6792 32.5637 53.3732 27.3812 62.2517 23.5518C71.092 19.7388 80.5357 17.8271 90.6013 17.8271ZM122.357 62.9561C119.764 62.9561 117.494 63.8151 115.713 65.5967L80.1404 101.169L65.49 86.5186C63.7084 84.737 61.4378 83.8779 58.8445 83.8779C56.2513 83.878 53.9815 84.737 52.2 86.5186C50.4186 88.3001 49.5593 90.5699 49.5593 93.1631C49.5594 95.7563 50.4185 98.0261 52.2 99.8076L73.4958 121.103C75.3401 122.947 77.5827 123.931 80.1404 123.931C82.698 123.931 84.9407 122.947 86.7849 121.103L129.002 78.8857C130.783 77.1042 131.642 74.8345 131.642 72.2412C131.642 69.6479 130.783 67.3783 129.002 65.5967C127.22 63.8151 124.951 62.9561 122.357 62.9561Z" fill="#0C56C9" stroke="url(#paint0_linear_37_3265)" stroke-width="4"/>
<defs>
<linearGradient id="paint0_linear_37_3265" x1="88.9363" y1="29.8832" x2="90.9363" y2="134.883" gradientUnits="userSpaceOnUse">
<stop stop-color="#00CBFE"/>
<stop offset="0.5" stop-color="#021D8A"/>
<stop offset="1" stop-color="#AA2BFA"/>
</linearGradient>
</defs>
</svg>
